# AST/ASF file generated using VICON BodyLanguage
# -----------------------------------------------
:version 1.10
:name VICON
:units
  mass 1.0
  length 0.45
  angle deg
:documentation
   .ast/.asf automatically generated from VICON data using
   VICON BodyBuilder and BodyLanguage model FoxedUp or BRILLIANT.MOD
:root
   order TX TY TZ RX RY RZ
   axis XYZ
   position 0 0 0  
   orientation 0 0 0 
:bonedata
  begin
     id 1 
     name lhipjoint
     direction 0.623529 -0.717805 0.309788 
     length 2.23224 
     axis 0 0 0  XYZ
  end
  begin
     id 2 
     name lfemur
     direction 0.34202 -0.939693 0  
     length 7.11402  
     axis 0 0 20  XYZ
    dof rx ry rz
    limits (-160.0 20.0)
           (-70.0 70.0)
           (-60.0 70.0)
  end
  begin
     id 3 
     name ltibia
     direction 0.34202 -0.939693 0   
     length 6.78496   
     axis 0 0 20   XYZ
    dof rx
    limits (-10.0 170.0)
  end
  begin
     id 4 
     name lfoot
     direction 0.125078 -0.343648 0.930732   
     length 1.84054   
     axis -90 7.62852e-016 20   XYZ
    dof rx rz
    limits (-45.0 90.0)
           (-70.0 20.0)
  end
  begin
     id 5 
     name ltoes
     direction 1.53565e-011 -4.21893e-011 1   
     length 0.916474   
     axis -90 7.62852e-016 20   XYZ
    dof rx
    limits (-90.0 20.0)
  end
  begin
     id 6 
     name rhipjoint
     direction -0.564688 -0.757748 0.327026   
     length 2.11457  
     axis 0 0 0  XYZ 
  end
  begin
     id 7 
     name rfemur
     direction -0.34202 -0.939693 0   
     length 7.14609   
     axis 0 0 -20   XYZ
    dof rx ry rz
    limits (-160.0 20.0)
           (-70.0 70.0)
           (-70.0 60.0)
  end
  begin
     id 8 
     name rtibia
     direction -0.34202 -0.939693 0   
     length 6.78101   
     axis 0 0 -20   XYZ
    dof rx
    limits (-10.0 170.0)
 end
 begin
     id 9 
     name rfoot
     direction -0.0992671 -0.272734 0.956955   
     length 1.96168  
     axis -90 -7.62852e-016 -20   XYZ
    dof rx rz
    limits (-45.0 90.0)
           (-20.0 70.0)
  end
  begin
     id 10 
     name rtoes
     direction -1.5356e-011 -4.21891e-011 1   
     length 0.982933   
     axis -90 -7.62852e-016 -20   XYZ
    dof rx
    limits (-90.0 20.0)
  end
  begin
     id 11 
     name lowerback
     direction -0.00596953 0.998668 0.0512524   
     length 1.87557   
     axis 0 0 0   XYZ
    dof rx ry rz
    limits (-20.0 45.0)
           (-30.0 30.0)
           (-30.0 30.0)
  end
  begin
     id 12 
     name upperback
     direction 0.00584879 0.999652 0.0257308   
     length 1.87883   
     axis 0 0 0   XYZ
    dof rx ry rz
    limits (-20.0 45.0)
           (-30.0 30.0)
           (-30.0 30.0)
  end
  begin
     id 13 
     name thorax
     direction 0.010104 0.999947 0.00178881   
     length 1.87779   
     axis 0 0 0   XYZ
    dof rx ry rz
    limits (-20.0 45.0)
           (-30.0 30.0)
           (-30.0 30.0)
  end
  begin
     id 14 
     name lowerneck
     direction 0.0120771 0.995934 -0.0892773   
     length 1.40897   
     axis 0 0 0   XYZ
    dof rx ry rz
    limits (-20.0 45.0)
           (-30.0 30.0)
           (-30.0 30.0)
  end
  begin
     id 15 
     name upperneck
     direction -0.030568 0.999465 -0.0116366   
     length 1.38661   
     axis 0 0 0   XYZ
    dof rx ry rz
    limits (-20.0 45.0)
           (-30.0 30.0)
           (-30.0 30.0)
  end
  begin
     id 16
     name head
     direction -0.0170715 0.999854 -0.00104426  
     length 1.47052  
     axis 0 0 0   XYZ
    dof rx ry rz
    limits (-20.0 45.0)
           (-30.0 30.0)
           (-30.0 30.0)
  end
  begin
     id 17 
     name lclavicle
     direction 0.977763 0.206143 0.038532  
     length 3.02424  
     axis 0 0 0   XYZ
    dof ry rz
    limits (-20.0 10.0)
           (0.0 20.0)
  end
  begin
     id 18 
     name lhumerus
     direction 1 -4.48965e-011 -2.62654e-027   
     length 4.68382   
     axis 180 -30 -90   XYZ
    dof rx ry rz
    limits (-60.0 90.0)
           (-90.0 90.0)
           (-90.0 90.0)
  end
  begin
     id 19
     name lradius
     direction 1 -4.48973e-011 -1.54954e-027   
     length 2.98124   
     axis 180 -30 -90   XYZ
    dof rx
    limits (-10.0 170.0)
  end
  begin
     id 20
     name lwrist
     direction 1 -4.48959e-011 7.20928e-028   
     length 1.49062   
     axis -5.52449e-016 90 90   XYZ
    dof ry
    limits (-180.0 0.0)
 end
  begin
     id 21 
     name lhand
     direction 1 -4.48971e-011 1.44186e-027   
     length 0.707595   
     axis -9.20027e-016 90 90   XYZ
    dof rx rz
    limits (-90.0 90.0)
           (-45.0 45.0)
  end
  begin
     id 22 
     name lfingers
     direction 1 -4.48985e-011 2.88371e-027   
     length 0.570481   
     axis -1.84005e-015 90 90   XYZ
    dof rx
    limits (0.0 90.0)
  end
  begin
     id 23
     name lthumb
     direction 0.707107 -6.34929e-011 0.707107   
     length 0.819101   
     axis -90 45 2.85299e-015   XYZ
    dof rx rz
    limits (-45.0 45.0)
           (-45.0 45.0)
  end
  begin
     id 24 
     name rclavicle
     direction -0.958661 0.284411 -0.00895327   
     length 3.11921  
     axis 0 0 0   XYZ 
    dof ry rz
    limits (-10.0 20.0)
           (-20.0 0.0)
  end
  begin
     id 25 
     name rhumerus
     direction -1 -4.48963e-011 -4.22193e-027  
     length 4.75876   
     axis 180 30 90   XYZ
    dof rx ry rz
    limits (-90.0 60.0)
           (-90.0 90.0)
           (-90.0 90.0)
  end
  begin
     id 26 
     name rradius
     direction -1 -4.48968e-011 -1.07616e-027   
     length 2.93293   
     axis 180 30 90   XYZ
    dof rx
    limits (-10.0 170.0)
  end
  begin
     id 27 
     name rwrist
     direction -1 -4.48965e-011 7.20928e-028   
     length 1.46647   
     axis -5.52449e-016 -90 -90   XYZ
    dof ry
    limits (-180.0 0.0)
  end
  begin
     id 28
     name rhand
     direction -1 -4.48971e-011 1.44186e-027   
     length 0.831748   
     axis -9.20027e-016 -90 -90   XYZ
    dof rx rz
    limits (-90.0 90.0)
           (-45.0 45.0)
  end
  begin
     id 29
     name rfingers
     direction -1 -4.48961e-011 2.88371e-027   
     length 0.670577   
     axis -1.84005e-015 -90 -90   XYZ
    dof rx
    limits (0.0 90.0)
  end
  begin
     id 30
     name rthumb
     direction -0.707107 -6.34929e-011 0.707107   
     length 0.962818   
     axis -90 -45 -2.85299e-015   XYZ
    dof rx rz
    limits (-45.0 45.0)
           (-45.0 45.0)
  end
:hierarchy
  begin
    root lhipjoint rhipjoint lowerback
    lhipjoint lfemur
    lfemur ltibia
    ltibia lfoot
    lfoot ltoes
    rhipjoint rfemur
    rfemur rtibia
    rtibia rfoot
    rfoot rtoes
    lowerback upperback
    upperback thorax
    thorax lowerneck lclavicle rclavicle
    lowerneck upperneck
    upperneck head
    lclavicle lhumerus
    lhumerus lradius
    lradius lwrist
    lwrist lhand lthumb
    lhand lfingers
    rclavicle rhumerus
    rhumerus rradius
    rradius rwrist
    rwrist rhand rthumb
    rhand rfingers
  end

#!OML:ASF E:\id_vita\Project 1\Capture day 1\Session 1\Female.ASF
:FULLY-SPECIFIED
:DEGREES
120
root -19.1985 16.136 0.0719202 286.257 87.2551 266.867
lowerback -15.2833 0.831835 -1.31193
upperback -4.31442 1.48395 0.581278
thorax 3.94058 0.823081 1.63071
lowerneck 0.999814 -0.999875 -3.51039
upperneck 17.8656 -1.51595 5.61765
head 5.26057 -0.407092 2.30308
rclavicle -1.06598e-014 -2.38542e-014
rhumerus -36.5885 -30.7323 -73.4735
rradius 19.3978
rwrist 21.9076
rhand -14.0496 3.96853
rfingers 7.12502
rthumb 12.0813 -25.6627
lclavicle -1.06598e-014 -2.38542e-014
lhumerus -50.3278 36.8091 59.2315
lradius 16.3558
lwrist -40.4733
lhand -9.15863 24.0354
lfingers 7.12502
lthumb 16.7937 53.3291
rfemur -33.5344 3.05444 30.9338
rtibia 31.0504
rfoot -15.806 -6.26332
rtoes 2.20832
lfemur -33.3426 6.74215 -17.0225
ltibia 73.5212
lfoot -3.42894 -0.597458
ltoes -1.88595
121
root -19.0665 16.1439 0.0860317 273.352 87.4257 254.285
lowerback -15.0265 0.857055 -1.4876
upperback -3.91867 1.52782 0.405304
thorax 4.2183 0.8277 1.55274
lowerneck -0.231045 -1.27744 -3.69576
upperneck 18.1917 -1.93017 5.87174
head 5.59431 -0.592191 2.3949
rclavicle -8.07563e-015 -2.38542e-015
rhumerus -35.0249 -31.1168 -74.4531
rradius 19.776
rwrist 21.5076
rhand -14.3051 3.50349
rfingers 7.12502
rthumb 11.8349 -26.1421
lclavicle -8.07563e-015 -2.38542e-015
lhumerus -51.0824 37.942 57.4777
lradius 15.9439
lwrist -42.6294
lhand -9.17839 24.3361
lfingers 7.12502
lthumb 16.7747 53.6315
rfemur -32.5221 2.62074 30.8153
rtibia 30.8682
rfoot -16.2609 -6.64127
rtoes 1.35054
lfemur -34.4677 5.72989 -17.1214
ltibia 74.0403
lfoot -5.03349 0.462497
ltoes -1.16648
122
root -18.951 16.146 0.0869102 275.672 87.3799 256.379
lowerback -15.0468 1.0434 -1.2412
upperback -4.09375 1.75084 0.303305
thorax 4.04734 0.946436 1.34431
lowerneck -0.333867 -1.37706 -3.85547
upperneck 18.5073 -2.0704 5.99191
head 5.72024 -0.652374 2.45666
rclavicle -2.02512e-014 -4.17448e-015
rhumerus -34.3071 -30.6046 -75.2045
rradius 20.1382
rwrist 20.4188
rhand -15.2266 4.95858
rfingers 7.12502
rthumb 10.9462 -24.7361
lclavicle -2.02512e-014 -4.17448e-015
lhumerus -52.8071 38.6038 55.2017
lradius 15.599
lwrist -44.5823
lhand -8.98832 24.3891
lfingers 7.12502
lthumb 16.9577 53.6688
rfemur -32.2286 2.49836 30.9045
rtibia 30.719
rfoot -16.3624 -6.59185
rtoes -0.467566
lfemur -36.305 5.22 -17.2265
ltibia 74.3895
lfoot -6.4934 1.52628
ltoes -1.45353
123
root -18.8366 16.1506 0.0905147 276.261 87.2322 256.721
lowerback -15.2386 1.21932 -1.08659
upperback -4.2003 1.96997 0.304352
thorax 4.03673 1.0599 1.30158
lowerneck -0.280177 -1.46655 -3.83985
upperneck 18.6474 -2.18524 5.97459
head 5.761 -0.702799 2.44485
rclavicle 7.1811e-015 1.5704e-014
rhumerus -33.4345 -29.9467 -75.9471
rradius 20.7053
rwrist 19.6334
rhand -15.7438 6.29627
rfingers 7.12502
rthumb 10.4473 -23.4242
lclavicle 7.1811e-015 1.5704e-014
lhumerus -54.6446 39.5766 52.5954
lradius 15.1363
lwrist -47.0769
lhand -8.62045 24.1719
lfingers 7.12502
lthumb 17.3118 53.4209
rfemur -31.95 2.30006 31.124
rtibia 30.597
rfoot -16.5806 -6.39376
rtoes -0.796243
lfemur -38.1261 4.68328 -17.1527
ltibia 74.4855
lfoot -7.80542 2.49737
ltoes -2.45991
124
root -18.7182 16.153 0.10105 273.21 87.1676 253.693
lowerback -15.2294 1.30442 -1.19943
upperback -4.21674 2.09839 0.361387
thorax 4.00447 1.12424 1.44785
lowerneck -0.0157674 -1.59958 -3.8991
upperneck 18.5409 -2.34858 5.89974
head 5.6913 -0.794187 2.42307
rclavicle -8.57259e-016 1.88845e-014
rhumerus -32.6173 -29.3527 -76.5262
rradius 21.3567
rwrist 18.8537
rhand -15.6539 7.0122
rfingers 7.12502
rthumb 10.534 -22.7038
lclavicle -8.57259e-016 1.88845e-014
lhumerus -56.6984 40.5965 49.8074
lradius 14.7388
lwrist -49.5555
lhand -8.39899 24.0379
lfingers 7.12502
lthumb 17.5249 53.268
rfemur -31.3633 2.03809 31.2737
rtibia 30.4591
rfoot -16.8809 -6.37004
rtoes -1.53089
lfemur -39.5512 3.94804 -17.0595
ltibia 74.3289
lfoot -8.93092 3.55467
ltoes -2.45913
125
root -18.5963 16.1509 0.11151 271.551 87.1206 252.118
lowerback -15.1248 1.4051 -1.19389
upperback -4.21111 2.23001 0.328153
thorax 3.95151 1.18943 1.43008
lowerneck 0.109021 -1.71402 -3.97858
upperneck 18.4847 -2.50696 5.95544
head 5.66218 -0.874044 2.44654
rclavicle 4.83295e-015 4.57205e-015
rhumerus -31.734 -28.7985 -77.3
rradius 21.9503
rwrist 17.8188
rhand -15.4813 6.7394
rfingers 7.12502
rthumb 10.7005 -22.9681
lclavicle 4.83295e-015 4.57205e-015
lhumerus -58.0901 40.8179 48.0113
lradius 14.5678
lwrist -50.7481
lhand -8.0976 24.5109
lfingers 7.12502
lthumb 17.8149 53.7149
rfemur -30.6775 1.94859 31.3446
rtibia 30.2642
rfoot -17.1434 -6.33988
rtoes -2.30059
lfemur -40.8285 3.17556 -16.9651
ltibia 73.9201
lfoot -9.71387 4.67534
ltoes -1.69043
126
root -18.4714 16.1549 0.122153 271.02 87.0152 251.709
lowerback -15.0046 1.50085 -0.909048
upperback -4.13612 2.31355 0.196068
thorax 3.98001 1.22852 1.14329
lowerneck 0.073525 -1.68595 -4.11297
upperneck 18.4535 -2.50977 6.27554
head 5.66236 -0.86327 2.57045
rclavicle 1.09332e-014 -1.09332e-014
rhumerus -30.7025 -27.9176 -78.4885
rradius 22.5975
rwrist 16.5246
rhand -15.6815 6.15469
rfingers 7.12502
rthumb 10.5074 -23.5627
lclavicle 1.09332e-014 -1.09332e-014
lhumerus -59.3148 41.0448 46.1841
lradius 14.459
lwrist -51.7097
lhand -7.61139 24.9824
lfingers 7.12502
lthumb 18.2827 54.1433
rfemur -29.8958 2.09907 31.3696
rtibia 30.0803
rfoot -17.4929 -6.28102
rtoes -1.52351
lfemur -41.9451 2.5161 -16.7703
ltibia 73.2937
lfoot -10.8788 5.42229
ltoes -1.82799
127
root -18.3413 16.1713 0.134464 266.775 86.9851 247.855
lowerback -14.7056 1.53751 -0.798227
upperback -3.97045 2.33752 0.0786948
thorax 4.00202 1.23464 0.95509
lowerneck 0.20229 -1.68646 -4.19169
upperneck 18.2839 -2.539 6.49668
head 5.59126 -0.873122 2.65155
rclavicle -2.98177e-014 -6.75868e-015
rhumerus -29.8163 -26.9493 -79.5561
rradius 23.3681
rwrist 15.229
rhand -16.1876 6.29952
rfingers 7.12502
rthumb 10.0192 -23.442
lclavicle -2.98177e-014 -6.75868e-015
lhumerus -60.9677 41.6098 43.6964
lradius 14.2736
lwrist -53.3292
lhand -7.18432 25.0386
lfingers 7.12502
lthumb 18.6935 54.1604
rfemur -28.7489 2.04165 31.3118
rtibia 29.8977
rfoot -18.0226 -6.61073
rtoes -1.38586
lfemur -42.6336 1.77098 -16.6462
ltibia 72.4004
lfoot -11.9415 5.7954
ltoes -0.556787
128
root -18.2298 16.1727 0.131292 272.985 87.1029 253.838
lowerback -14.7849 1.92625 -0.862705
upperback -4.0787 2.87331 -0.0379831
thorax 3.92281 1.50341 0.964309
lowerneck 0.53233 -1.9812 -3.99228
upperneck 18.0118 -2.93523 6.43009
head 5.46963 -1.06483 2.57709
rclavicle -7.03201e-015 -1.64991e-014
rhumerus -29.2373 -26.3571 -79.9902
rradius 24.173
rwrist 13.9283
rhand -16.5432 6.6142
rfingers 7.12502
rthumb 9.67613 -23.1436
lclavicle -7.03201e-015 -1.64991e-014
lhumerus -62.1046 41.6693 42.0003
lradius 13.9931
lwrist -54.7603
lhand -6.8659 25.0462
lfingers 7.12502
lthumb 18.9998 54.1382
rfemur -28.3972 1.89847 31.2341
rtibia 29.6676
rfoot -18.5606 -6.56901
rtoes -2.90411
lfemur -44.0777 1.40312 -16.7984
ltibia 71.3548
lfoot -12.8082 6.35464
ltoes -1.94961
129
root -18.1122 16.1734 0.132655 276.283 87.3523 257.129
lowerback -14.6872 2.08984 -1.13674
upperback -4.03537 3.12883 -0.0960507
thorax 3.89937 1.62734 1.09923
lowerneck 0.359524 -2.12097 -4.04052
upperneck 17.9717 -3.12024 6.40204
head 5.4975 -1.15997 2.5654
rclavicle -1.2921e-015 6.75868e-015
rhumerus -28.3743 -25.3169 -80.609
rradius 24.9037
rwrist 12.6126
rhand -16.8096 6.75192
rfingers 7.12502
rthumb 9.41907 -23.0176
lclavicle -1.2921e-015 6.75868e-015
lhumerus -63.8255 42.2821 39.5459
lradius 13.7253
lwrist -56.4178
lhand -6.55452 25.0031
lfingers 7.12502
lthumb 19.2992 54.0654
rfemur -27.773 1.81695 30.9567
rtibia 29.3964
rfoot -18.9603 -6.59883
rtoes -4.07736
lfemur -45.0253 0.861884 -17.0723
ltibia 70.0309
lfoot -13.3178 6.9305
ltoes -3.08538
130
root -17.9803 16.1856 0.143487 273.992 87.6091 255.04
lowerback -14.5763 2.00698 -1.27581
upperback -3.8541 3.03462 -0.207984
thorax 4.0316 1.57283 1.04389
lowerneck 0.0735948 -2.02858 -4.23969
upperneck 18.009 -3.0074 6.53222
head 5.55559 -1.10806 2.64361
rclavicle 1.41634e-014 1.39149e-014
rhumerus -27.4203 -24.1408 -81.6182
rradius 25.715
rwrist 11.5929
rhand -17.0164 6.80645
rfingers 7.12502
rthumb 9.21949 -22.972
lclavicle 1.41634e-014 1.39149e-014
lhumerus -65.8901 42.9822 36.6443
lradius 13.6683
lwrist -57.834
lhand -6.08015 24.7506
lfingers 7.12502
lthumb 19.7553 53.7667
rfemur -26.8377 1.99179 30.5775
rtibia 29.1415
rfoot -19.3095 -6.85201
rtoes -4.28581
lfemur -45.587 0.121328 -17.2342
ltibia 68.478
lfoot -14.209 7.18699
ltoes -4.43014
